# xmcd
#
# Track frame offsets:
#	150
#	13393
#	26205
#	37400
#	46315
#	55956
#	62282
#	73190
#	86187
#	96254
#	105043
#	120516
#	136295
#	141782
#	143711
#	149965
#	161264
#	173338
#	180963
#	194506
#	209316
#	216520
#
# Disc length: 3090 seconds
#
# Revision: 1
# Processed by: cddbd v1.5.2PL0 Copyright (c) Steve Scherf et al.
# Submitted via: EasyCDDAExtractor 11.1.0.1
#
DISCID=4b0c1016
DTITLE=Various Artist - Down Home Harp
DYEAR=2000
DGENRE=Blues
TTITLE0=Big Walter Horton - Blue Mood
TTITLE1=Billy Boy Arnold - We All Gotta Go
TTITLE2=Billy Boy Arnold - Billy Boy's Jump
TTITLE3=James 'Bat' Robinson - Borrow Love And Go
TTITLE4=Big John Wrencher - You Know I Love You
TTITLE5=Coot Venson - Thinkin About Your Apples
TTITLE6=George Robertson - Sweet Woman Blues
TTITLE7=Harmonica Slim Willis Quartet - Canadian Sunset
TTITLE8=Andrew Cauthen - Last Night Blues
TTITLE9=Willie Lee Harris - Blue As I Can Be
TTITLE10=John Lee Henley - Medley: Fox Chase - Snake Hippin' - Careless Love
TTITLE11=Robert Nighthawk with Little Walter - Sweet Little Woman
TTITLE12=Elmon 'Driftin' Slim' Mickle - Slow Train Through Arkansas
TTITLE13=Elmon 'Driftin' Slim' Mickle - T-Model And The Train
TTITLE14=Coot Venson - Morning Rock
TTITLE15=Dr Ross - Blues For Illinois
TTITLE16=Billy Boy Arnold - Mattie Mae
TTITLE17=Coot Venson - Where The Southern Crosses The Dog
TTITLE18=Andrew Cauthen - Goin' Down To The Station
TTITLE19=Big Walter Horton - Walter's Boogie
TTITLE20=James 'Bat' Robinson - John Henry
TTITLE21=Johnny Young with Little Walter - Baby, You Don't Have To Go
EXTD=
EXTT0=
EXTT1=
EXTT2=
EXTT3=
EXTT4=
EXTT5=
EXTT6=
EXTT7=
EXTT8=
EXTT9=
EXTT10=
EXTT11=
EXTT12=
EXTT13=
EXTT14=
EXTT15=
EXTT16=
EXTT17=
EXTT18=
EXTT19=
EXTT20=
EXTT21=
PLAYORDER=
